<?xml version="1.0" standalone="no"?>
<!DOCTYPE svg PUBLIC "-//W3C//DTD SVG 20010904//EN"
 "http://www.w3.org/TR/2001/REC-SVG-20010904/DTD/svg10.dtd">
<svg version="1.0" xmlns="http://www.w3.org/2000/svg"
 width="30.000000pt" height="30.000000pt"  viewBox="0 0 200.000000 200.000000"
 preserveAspectRatio="xMidYMid meet">

<g transform="translate(0.000000,200.000000) scale(0.100000,-0.100000)"
fill="#ffffff" stroke="none">
<path d="M939 1898 c-165 -123 -261 -275 -284 -450 l-6 -46 63 -33 c36 -19 94
-64 136 -105 70 -70 72 -71 68 -41 -3 18 -7 61 -10 97 l-5 65 19 -85 c10 -47
28 -112 41 -145 l23 -60 8 85 c4 47 12 135 17 195 8 110 8 109 10 -85 l2 -195
24 45 c13 25 41 89 61 142 21 54 39 96 41 94 2 -2 -3 -31 -11 -64 -9 -33 -16
-63 -16 -67 0 -4 23 14 51 39 29 26 81 63 116 83 l65 36 -7 54 c-16 129 -62
226 -153 324 -46 50 -137 123 -188 152 -5 3 -35 -12 -65 -35z"/>
<path d="M255 1420 c-75 -8 -132 -21 -207 -47 -46 -16 -48 -19 -48 -55 0 -135
79 -333 172 -429 159 -166 382 -228 636 -178 50 10 52 12 38 28 -19 21 -46 95
-46 126 0 26 -17 35 -68 35 -50 0 -155 24 -225 50 -32 12 -57 23 -55 25 2 1
44 -8 93 -20 50 -13 124 -26 165 -29 l75 -6 -50 26 c-154 81 -365 196 -365
199 0 3 345 -147 391 -171 l32 -16 -24 34 c-13 18 -69 79 -125 135 -55 56 -96
99 -90 96 35 -20 179 -140 225 -187 l54 -55 39 34 c21 19 41 35 46 35 4 0 13
4 21 9 21 14 -42 122 -112 192 -127 128 -351 194 -572 169z"/>
<path d="M1550 1420 c-200 -24 -361 -118 -453 -261 -48 -76 -53 -96 -26 -104
12 -4 38 -22 58 -41 l38 -33 54 55 c46 47 190 167 225 187 6 3 -35 -40 -90
-96 -56 -56 -112 -117 -125 -135 l-24 -34 32 16 c46 24 391 174 391 171 0 -3
-211 -118 -365 -199 l-50 -26 75 6 c41 3 116 16 165 29 50 12 91 21 93 20 2
-2 -23 -13 -55 -25 -71 -27 -175 -50 -228 -50 -22 0 -45 -4 -51 -8 -5 -4 -16
-33 -23 -64 -7 -31 -21 -68 -32 -82 l-19 -25 52 -10 c98 -19 173 -23 252 -12
226 32 388 145 481 335 44 91 75 207 75 284 0 39 0 39 -62 60 -119 39 -277 56
-388 42z"/>
<path d="M931 1003 c-73 -36 -105 -138 -66 -213 l17 -32 20 33 c11 19 29 44
40 56 17 18 21 37 22 98 1 41 1 75 1 75 0 0 -15 -8 -34 -17z"/>
<path d="M1036 944 c1 -60 5 -79 22 -97 11 -12 29 -38 41 -57 l20 -34 16 37
c38 91 -2 185 -95 223 -3 1 -5 -31 -4 -72z"/>
<path d="M945 758 c-32 -18 -76 -61 -92 -91 -23 -44 -32 -126 -22 -191 8 -49
7 -61 -6 -76 -19 -21 -30 -79 -21 -113 3 -13 16 -37 28 -53 13 -16 23 -40 23
-54 0 -21 11 -30 68 -58 37 -17 67 -37 67 -43 0 -7 6 -7 16 2 9 8 44 28 78 44
52 25 61 34 61 56 0 15 7 35 16 45 44 51 51 109 19 162 -17 28 -19 41 -12 87
15 93 -9 185 -62 243 -23 26 -75 56 -83 49 -2 -3 3 -29 11 -58 9 -29 16 -62
15 -73 0 -12 -7 1 -14 27 -7 27 -16 51 -19 55 -3 3 -7 -46 -8 -109 l-2 -114
-5 110 -6 110 -17 -55 c-9 -30 -19 -64 -21 -75 -3 -13 -5 -10 -5 10 -1 17 5
59 13 95 20 91 20 90 -20 68z m112 -180 c-3 -7 -5 -2 -5 12 0 14 2 19 5 13 2
-7 2 -19 0 -25z m-110 -50 c-3 -7 -5 -2 -5 12 0 14 2 19 5 13 2 -7 2 -19 0
-25z"/>
<path d="M327 674 c-77 -78 -136 -213 -140 -319 -2 -50 -2 -50 43 -72 87 -43
151 -57 250 -57 99 1 163 18 238 64 32 20 32 20 32 102 0 78 6 117 25 178 7
25 7 25 -26 -6 -61 -54 -75 -59 -28 -8 81 88 79 89 -39 30 -170 -85 -165 -71
8 24 l95 52 -80 -7 c-44 -3 -91 -8 -105 -11 -16 -2 -12 1 10 9 l35 14 -74 7
c-41 4 -102 16 -135 27 -34 10 -62 19 -63 19 0 0 -21 -21 -46 -46z"/>
<path d="M1560 700 c-30 -10 -89 -21 -130 -26 l-75 -7 35 -14 c22 -8 26 -11
10 -9 -14 3 -61 8 -105 11 l-80 7 95 -52 c173 -95 178 -109 9 -25 -122 62
-129 55 -35 -33 68 -65 60 -68 -13 -5 -36 32 -52 40 -48 27 18 -58 27 -117 27
-187 0 -76 0 -78 33 -97 76 -47 138 -63 242 -63 88 0 110 4 187 32 48 18 92
39 99 48 19 22 -12 160 -55 248 -31 62 -117 167 -134 164 -4 -1 -32 -9 -62
-19z"/>
</g>
</svg>
